<svg xmlns="http://www.w3.org/2000/svg" xmlns:xlink="http://www.w3.org/1999/xlink" viewBox="0 0 305.76 118.38"><defs><style>.cls-1{fill:url(#linear-gradient);}.cls-2{fill:#7167fd;}.cls-3{fill:url(#linear-gradient-2);}</style><linearGradient id="linear-gradient" x1="5.28" y1="40.72" x2="56.42" y2="65.68" gradientUnits="userSpaceOnUse"><stop offset="0" stop-color="#7167fd"/><stop offset="1" stop-color="#fbb8c5"/></linearGradient><linearGradient id="linear-gradient-2" x1="100.18" y1="62.48" x2="336.18" y2="64.95" xlink:href="#linear-gradient"/></defs><title>Asset 1</title><g id="Layer_2" data-name="Layer 2"><g id="Layer_1-2" data-name="Layer 1"><path class="cls-1" d="M33.68,101.12A2.75,2.75,0,0,0,34.9,105c1.51.91,8.11,5,8.11,5l2.62-4.25s-6.72-4.07-8.09-5C36.46,100,34.63,99.73,33.68,101.12ZM16,77.5V12.15H11V77.5c0,3.37.77,7,1.87,8.73a2.62,2.62,0,0,0,3.38,1,2.58,2.58,0,0,0,1-3.19A17,17,0,0,1,16,77.5ZM49,13.84,29.5,1.82a12,12,0,0,0-11.89-.47,13.44,13.44,0,0,0-1.67,1c-.56.38.39.17,2.68.3,3,.17,4.81,1.29,8.26,3.39l19.51,12a17.88,17.88,0,0,1,8.46,15.14v16.5h5V33.23A22.9,22.9,0,0,0,49,13.84Zm8.34,47.62a2.5,2.5,0,0,0-2.5,2.5V99.58c0,5.52-.15,9.52-3.11,12.48-1,1-.47,1.38-.06,1.15,7-3.92,8.17-7.14,8.17-13.63V64A2.5,2.5,0,0,0,57.35,61.46Z"/><path class="cls-2" d="M36.7,118.38a12,12,0,0,1-6.35-1.83l-19.52-12A22.91,22.91,0,0,1,0,85.14V19.79A12,12,0,0,1,6.22,9.2a12,12,0,0,1,12.28.26L38,21.48A22.92,22.92,0,0,1,48.85,40.87V53.72a2.5,2.5,0,0,1-5,0V40.87a17.88,17.88,0,0,0-8.46-15.13l-19.51-12A7.14,7.14,0,0,0,5,19.79V85.14a17.9,17.9,0,0,0,8.45,15.14L33,112.3a7.14,7.14,0,0,0,10.88-6.08V69a2.5,2.5,0,0,1,5,0v37.26A12.21,12.21,0,0,1,36.7,118.38Z"/><path class="cls-2" d="M31.07,67.46a3.09,3.09,0,0,1-.95-.15,3,3,0,0,1-1.84-1.73l-5.5-13.75a3,3,0,0,1,5.57-2.23l4.18,10.45L72.7,35.47a3,3,0,1,1,3.13,5.12L32.63,67A3,3,0,0,1,31.07,67.46Z"/><ellipse class="cls-2" cx="23.17" cy="96.13" rx="3.28" ry="4.25" transform="translate(-57.71 39.24) rotate(-41.33)"/><path class="cls-2" d="M24.1,103a6.52,6.52,0,0,1-1.68-.22,8.09,8.09,0,0,1-6-7.58,5.84,5.84,0,0,1,2.21-4.68,6,6,0,0,1,5.25-1,8.09,8.09,0,0,1,6,7.59A5.68,5.68,0,0,1,24.1,103Zm-1.68-7.69A2.24,2.24,0,0,0,23.91,97h0a2.3,2.3,0,0,0-1.5-1.7Z"/><path class="cls-3" d="M138.4,45.94A18.71,18.71,0,0,0,118.1,49c-5.34,5.14-6.94,14.58-3.7,21.76s11,11,19.7,9.71c4.25-.64,8.13-2,11.24-5.17l-4.62-6.53c-8.08,6.1-17.38,2.81-17.39-3.67h23.91a47.41,47.41,0,0,0,0-5.48C146.49,53.69,144.08,48.72,138.4,45.94ZM123.47,58.77a7,7,0,0,1,6.89-6.59c3.86,0,6.38,2.4,6.77,6.59ZM100.68,30.93c-3.37,0-5.91,2.21-6,5.25-.07,3.2,2.42,5.54,5.88,5.55s5.94-2.2,5.91-5.47S104.1,30.94,100.68,30.93Zm-5,14.58v2.78q0,15.83,0,31.65c0,5.14-1.57,6.39-6.63,5.42-.14,0-.3.08-.64.18-.71,2.32-1.44,4.74-2.16,7.09.28.24.38.39.52.43a12.52,12.52,0,0,0,1.79.5c4.84.74,9.57.83,13.37-3a12.59,12.59,0,0,0,3.54-9.16c.05-11.56,0-23.13.05-34.69,0-.38-.06-.75-.1-1.23Zm165.81,0h-9.13c-.21,1.19-.39,2.25-.59,3.37-7.2-6-15.1-6-21-.07-4.54,4.62-5.63,10.36-4.7,16.48.89,5.8,3.65,10.52,9.48,12.64s11.06,1.49,15.44-3.25c.11-.12.4-.07.61-.1.34,7.21-2.12,10.51-8.44,10.59-3.12,0-6.26-.83-9.64-1.32-.77,2.29-1.68,5-2.64,7.8a29,29,0,0,0,19.26,1.24A14.74,14.74,0,0,0,261,81.38a27.83,27.83,0,0,0,.61-6c.06-9.23,0-18.45,0-27.67C261.64,47,261.57,46.3,261.52,45.52ZM243.64,70.59c-4.42.06-7.56-3.45-7.67-8.57s3-8.88,7.74-9,7.86,3,8,8.34S248.54,70.51,243.64,70.59Zm43.54-26.24c-11,.25-18.34,7.66-18.17,18.33.17,10.82,7.79,18.11,18.78,18,10.75-.14,18.18-7.92,18-18.82C305.56,51.55,297.66,44.11,287.18,44.35Zm3.13,27.16a7.53,7.53,0,0,1-9.44-2.85,11.13,11.13,0,0,1-.72-10.95A7.91,7.91,0,0,1,288.92,53c3.17.5,6,3.56,6.52,7.1.11.77.12,1.56.17,2.19C295.53,66.43,294.28,69.79,290.31,71.51ZM178.58,45.33c-2.08-.17-3,.63-3.73,2.49-2,5-4.23,9.84-6.59,15.24-2.51-5.68-4.76-10.82-7.09-15.93-.31-.68-1-1.63-1.61-1.66-3.38-.16-6.78-.08-10.45-.08.59,1.2,1,2,1.4,2.85q8,15.24,16,30.44a8.68,8.68,0,0,0,1.66,1.72,10.86,10.86,0,0,0,1.58-1.83q8.21-15.51,16.32-31c.32-.6.55-1.24.94-2.14C184,45.38,181.28,45.54,178.58,45.33ZM219,57a11.66,11.66,0,0,0-6.84-10.67c-7.55-3.54-14.81-2.17-22,1.79l3.55,7.17c4.26-2.5,6.74-3.13,10.49-2.78s5.73,2.7,5.4,6.73c-.77-.11-1.52-.25-2.28-.34-4.8-.6-9.51-.45-13.86,2A9.49,9.49,0,0,0,188.39,71c.54,4.51,3,7.58,7.29,8.71,5.2,1.34,10.07.91,14-3.39a2.38,2.38,0,0,1,.71-.37c.3,1.33.57,2.51.83,3.65h8.54c-.11-1.54-.26-2.86-.29-4.19C219.29,69.28,219.28,63.11,219,57ZM209.29,69.5c-1.54,3.21-6.94,4.67-9.94,2.69a3.67,3.67,0,0,1,.76-6.42,20.66,20.66,0,0,1,4.23-1c1.23.13,1.92.19,2.61.28C210.13,65.45,210.71,66.56,209.29,69.5Z"/></g></g></svg>