<svg xmlns="http://www.w3.org/2000/svg" width="93" height="190" viewBox="0 0 93 190">
  <metadata><?xpacket begin="﻿" id="W5M0MpCehiHzreSzNTczkc9d"?>
<x:xmpmeta xmlns:x="adobe:ns:meta/" x:xmptk="Adobe XMP Core 5.6-c142 79.160924, 2017/07/13-01:06:39        ">
   <rdf:RDF xmlns:rdf="http://www.w3.org/1999/02/22-rdf-syntax-ns#">
      <rdf:Description rdf:about=""/>
   </rdf:RDF>
</x:xmpmeta>
                                                                                                    
                                                                                                    
                                                                                                    
                                                                                                    
                                                                                                    
                                                                                                    
                                                                                                    
                                                                                                    
                                                                                                    
                                                                                                    
                                                                                                    
                                                                                                    
                                                                                                    
                                                                                                    
                                                                                                    
                                                                                                    
                                                                                                    
                                                                                                    
                                                                                                    
                                                                                                    
                           
<?xpacket end="w"?></metadata>
<defs>
    <style>
      .cls-1 {
        fill: #2580ff;
        fill-rule: evenodd;
      }
    </style>
  </defs>
  <path id="Color_Fill_1" data-name="Color Fill 1" class="cls-1" d="M7,0C23.737-.377,85.738-3.323,91,5c6.595,10.705,2,118.454,2,141,0,13.246,3.4,36.632-5,42-8.618,5.508-82.46,2.694-86-3-5.331-8.754-2-32.355-2-45C0,109.332-6.307,22.489,3,2ZM9,3C0.291,11.911,3,33.477,3,51L4,183l5,4,77-1,4-5L89,7,84,3H9ZM50,7l-1,6H48l-4-1,1-5h5ZM37,13l-1,6H35l-4-2V16l1-3h5Zm2,1H55v3H39V14ZM8,22H85V168H8V22Zm3,3V165H82V25H11ZM53,43l17,1,3,2c0.267,7.123.094,14.672-2,19H54l-4-2,1-17Zm2,2-3,3c-0.229,6.209.237,11.4,2,15,6.663,0.255,13.048-.075,17-2L70,48l-2-3H55Zm10,1,5,5L59,62l-6-6V54C58.024,51.2,61.087,51.13,65,46ZM20,47H39v3H20V47Zm45,3c-2.947,4.145-3.9,5.292-9,5l3,3C62,55.966,65.849,52.949,65,50ZM20,53H46v3H20V53Zm0,6,26,1v1C38.6,61.355,23.93,62.707,20,59ZM53,81c8.54-.356,15.309.118,20,3,0.356,8.54-.118,15.309-3,20-8.54.356-15.309-.118-20-3V84Zm3,2-4,3c-0.229,6.209.237,11.4,2,15,6.663,0.255,13.048-.076,17-2,0.229-6.209-.237-11.4-2-15ZM20,85H39v3H20V85Zm45,0c8.836,4.457-.312,11.239-6,15l-6-6V92C58.746,88.9,60.327,91.029,65,85Zm0,4c-2.951,4.023-3.588,4.683-9,4l3,3,7-7H65ZM20,91H46v3H20V91Zm0,6H46v3H20V97Zm33,26c8.54-.356,15.309.118,20,3,0.356,8.54-.118,15.309-3,20-8.54.356-15.309-.118-20-3V126Zm1,3c-2.492,4.743-2.438,12.259,0,17H67l4-2c0.229-6.209-.237-11.4-2-15H54Zm-34,1H39v3H20v-3Zm45,0,5,4v2l-10,9H58l-5-6v-2C58.746,130.9,60.327,133.029,65,127Zm0,4c-3.507,4.868-3.774,5.241-9,4l3,4,8-8H65Zm-45,2H46v3H20v-3Zm0,6H46v3H20v-3Zm25,30c7.712,0.379,9.545,2.5,10,10l-4,5-9-1-1-3c-1.914-4.692-.043-6.863,2-10Zm0,4-2,5,3,3h3l2-6-1-2H45Z"/>
</svg>
