<svg xmlns="http://www.w3.org/2000/svg" width="311" height="380" viewBox="0 0 311 380">
  <defs>
    <style>
      .cls-1 {
        fill: #f297c7;
        fill-rule: evenodd;
      }
    </style>
  </defs>
  <path id="Color_Fill_1" data-name="Color Fill 1" class="cls-1" d="M311,238l-27,5v79c11.924,2.529,18.683,9.911,26,17-0.489,21.4-37.29,23.232-56,28-10.513,2.679-23.8,3.542-35,6l-21,1c-10.438,2.227-22.295.552-34,3-41.622,8.706-96.454,3.228-123-13-12.343-7.546-25.246-18.965-31-33-6.323-15.423.132-27.764,16-28V230c-5.395-1.557-24.979-13.76-26-19,5.26-3.455,22.439-21.6,26-27-5.224-3.644-24.9-26.416-26-33a2.84,2.84,0,0,0,1-1c32.308,0.028,62.093-12.107,94-14v-1c-5.441-6.212-6.583-16.9-10-25C76.932,90.874,68.1,70.221,60,51c-3.081-7.315-10.248-20.829-5-29C64.576,7.091,88.012,9.93,108,5c7.2-1.776,28.722-7.973,38-5,13.316,4.267,16.66,28.35,22,41,10.144,24.028,20.828,49.853,31,74,4.486,10.648,6.5,26.079,14,34v-1c7.2-4.882,11.909-16.8,22-18,5.187,5.009,12.668,7.079,19,11,11.461,7.1,23.572,14.881,35,22,6.077,3.786,18.949,6.567,21,14-4.392,2.942-23.31,23.06-25,28l26,30v3ZM135,3c-7.659,4.567-37.5,6.47-48,9-6.977,1.682-16.975-.3-20,5-3.832,6.719,3.456,16.026,5,22h1c-0.2-6.608.536-7.943,7-8,4.668-2.969,11.811-1.489,18-3,14.286-3.488,42.729-10.544,57-8,1.14,2.461,2.206,4.04,3,7h1c-2.626-11.3-7.9-17.33-15-24h-9Zm-21,8,5,1a18.322,18.322,0,0,1,1,6h-1v1c-6.686.434-11.3,1.907-19,2-1.225-2.281-1.638-2.251-2-6h1V14C103.058,13.671,111.034,13.063,114,11ZM92,15c3.446,1.712,3.847,1.784,4,7a14.145,14.145,0,0,1-4,1c-1.768-2.252-2.375-2.126-3-6A10.949,10.949,0,0,0,92,15Zm18,0c-1.628,1.088-5.859,1.593-8,2v1h5c2.585-1.612,7.6-1.283,10-3h-7ZM92,18c-0.328,1.384,1.419,1.451,2,2C94.7,18.937,92.276,18.3,92,18ZM61,21a24.976,24.976,0,0,1-4,5C56.642,41.5,67.881,59.051,73,71c11.743,27.412,21.573,55.194,33,82,7.138,16.745,10.531,32.113,22,44,14,0.63,65.982-6.88,77-13v-1h-3c-4.721,2.941-11.783,1.466-18,3-11.576,2.856-42.162,10.67-52,4-8.729-5.918-14.3-30.861-19-42-12.015-28.483-22.726-57.9-35-87C72.942,49.009,63.936,35.9,63,21H61ZM76,34c0.251,11.908,8.021,22.7,12,32,10.309,24.1,18.993,48.5,29,72,3.335,7.831,7.915,29.39,15,32,2.349,1.068,10.234-1.352,14-2,14.229-2.447,28.834-3.678,42-7,6.1-1.538,13.469.07,18-3,0.752-1.073.6-.946,1-3-6.647-8.936-8.447-22.279-13-33-9.546-22.48-19.444-46.454-29-69-3.86-9.108-6.682-30.389-18-31-6.129,3.847-16.139,2.068-24,4C108.617,29.536,91.786,33.177,76,34Zm83-6q0.5,2,1,4h1C160.413,29.755,160.252,29.345,159,28Zm2,5q0.5,2,1,4h1C162.413,34.755,162.252,34.345,161,33Zm2,5q0.5,2,1,4h1C164.413,39.755,164.252,39.345,163,38ZM73,40l1,4h1C74.413,41.755,74.252,41.345,73,40Zm92,3q0.5,2,1,4h1C166.413,44.755,166.252,44.345,165,43ZM75,45l1,4h1C76.413,46.755,76.252,46.345,75,45Zm92,3q4,10.5,8,21h1C174.652,62.933,171,52.088,167,48ZM77,50l1,4h1C78.413,51.755,78.252,51.345,77,50Zm2,5,1,4h1C80.413,56.755,80.252,56.345,79,55Zm2,5,8,21h1C88.652,74.933,85,64.088,81,60Zm66,8c4.633,0.8,10.835,2.39,12,7-5.882,7.025-9.674,35.052-18,37-5.272-3.815-16.393-3.615-19-10,2.66-3.659,1.814-8.6,7-10,2.007,1.75,5.239,2.872,7,2C141.373,87.883,143.753,75.756,147,68Zm29,2q0.5,2,1,4h1C177.413,71.755,177.252,71.345,176,70Zm2,5q0.5,2,1,4h1C179.413,76.755,179.252,76.345,178,75Zm2,5q0.5,2,1,4h1C181.413,81.755,181.252,81.345,180,80ZM90,82l1,4h1C91.413,83.755,91.252,83.345,90,82Zm92,3q0.5,2,1,4h1C183.413,86.755,183.252,86.345,182,85ZM92,87l1,4h1C93.413,88.755,93.252,88.345,92,87Zm92,3q0.5,2,1,4h1C185.413,91.755,185.252,91.345,184,90ZM94,92l1,4h1C95.413,93.755,95.252,93.345,94,92Zm92,3q0.5,2,1,4h1C187.413,96.755,187.252,96.345,186,95ZM96,97l1,4h1C97.413,98.755,97.252,98.345,96,97Zm92,3q0.5,2,1,4h1C189.413,101.755,189.252,101.345,188,100Zm-90,2,1,4h1C99.413,103.755,99.252,103.345,98,102Zm92,3q0.5,2,1,4h1C191.413,106.755,191.252,106.345,190,105Zm-90,2q0.5,2,1,4h1C101.413,108.755,101.252,108.345,100,107Zm92,3q0.5,2,1,4h1C193.413,111.755,193.252,111.345,192,110Zm-90,2q0.5,2,1,4h1C103.413,113.755,103.252,113.345,102,112Zm92,3q0.5,2,1,4h1C195.413,116.755,195.252,116.345,194,115Zm-90,2q0.5,2,1,4h1C105.413,118.755,105.252,118.345,104,117Zm92,3q0.5,2,1,4h1C197.413,121.755,197.252,121.345,196,120Zm-90,2q0.5,2,1,4h1C107.413,123.755,107.252,123.345,106,122Zm92,3q0.5,2,1,4h1C199.413,126.755,199.252,126.345,198,125Zm-90,2q0.5,2,1,4h1C109.413,128.755,109.252,128.345,108,127Zm92,3q0.5,2,1,4h1C201.413,131.755,201.252,131.345,200,130Zm-90,2q0.5,2,1,4h1C111.413,133.755,111.252,133.345,110,132Zm122,2c-4.766,7.068-16.107,11.807-18,21,2.173,2.425,2.476,7.976,5,10,2.657,2.131,6.072,2.183,9,4,12.334,7.654,25.149,15.146,38,23,2.8,1.711,13.72,11.133,16,9,6.758-4.739,18.417-17.932,23-25-17.353-9.736-34.768-19.44-52-30C246.581,142.066,240.456,135.7,232,134Zm-30,1q0.5,2,1,4h1C203.413,136.755,203.252,136.345,202,135Zm-90,2q0.5,2,1,4h1C113.413,138.755,113.252,138.345,112,137Zm-20,2c-5.086,3.095-12.263,1.365-19,3-13.719,3.329-30.189,4.648-44,8-6.894,1.673-20.675-.191-24,5,8.7,6.018,17.7,27.224,29,28,5-3.143,12.306-1.4,19-3,17.138-4.09,37.341-8.045,56-9v-1c-6.365-7.277-9.145-21.828-13-31H92Zm112,1c1.717,6.9,5.465,10.732,6,19-7.689,4.252-17.669,3.473-28,6-14.43,3.529-39.634,9.821-55,7-2.1-4.761-4.582-9.687-6-15h-1v2c7.228,8.475,6.5,24.878,17,30,5.646,2.753,14.793-.713,20-2,18.773-4.64,37.839-4.96,56-9,0.961-1.766,1.257-1.68,2-4C218.064,169.432,206.891,142.9,204,140Zm-90,2q0.5,2,1,4h1C115.413,143.755,115.252,143.345,114,142Zm2,5q0.5,2,1,4h1C117.413,148.755,117.252,148.345,116,147Zm2,5q0.5,2,1,4h1C119.413,153.755,119.252,153.345,118,152Zm54,16h9c2.046,3.241,2.988,4.032,3,10a2.834,2.834,0,0,0-1,1c-6.691.528-11.727,2.182-18,1-1.441-2.67-1.994-4.221-2-9l3-1C167.194,169.223,170.815,168.8,172,168Zm33,46c16.945,0.236,35.866-4.353,51-8,6.24-1.5,16.033.63,19-4h-1l-54-33c-0.6,10.448-8.052,15.011-15,19v26Zm-24-38v-3c-2.418-1.3-2.833-1.8-7-2-1.628,1.088-5.859,1.593-8,2v3a10.925,10.925,0,0,1,3,2Zm-70-2c-13.107-.068-26.617,3.276-38,6-13.318,3.187-27.017,1.7-39,6,1.021,0.8.274,0.355,2,1,10.279,10.466,30.034,17.861,43,26,7.629,4.789,17.263,14.325,26,17,6.048,1.852,44.218-6.375,51-8,11.091-2.657,37.522-2.1,45-7,3.035-4.709,1.133-19.161,1-26h-2c-4.643,2.982-11.825,1.5-18,3-9.712,2.365-48.364,11.331-55,7C118.309,196.272,112.379,183.665,111,174ZM28,186c-5.779,8.69-20.675,17.787-24,27H5c12.259,12.235,31.351,19.329,46,29,7.611,5.025,16.074,14.009,26,16,6.591-9.816,21.824-15.362,26-27-9.632-2.53-18.183-11.067-26-16C60.941,204.866,44.677,194.6,28,186Zm250,20c-9.521,5.844-32.471,3.974-45,7-28.355,6.849-60.637,8.036-89,15-10.979,2.7-27.742.062-36,6,9.062,6.255,20.338,30.69,31,32,8.69-5.293,27.742-4.182,39-7,28.553-7.148,60.5-9.769,89-17,8.011-2.032,35.911-3.174,39-8-6.947-4.716-19.551-20.556-24-28h-4Zm3,37c-22.655,2.285-47.61,7.525-69,13l-45,7c-10.008,2.567-21.457,5.337-33,6-3.292-5.169-25.541-32.4-30-34-4.19,6.444-21.766,24.442-29,27-4.537-5.636-12.718-8.044-19-12-8.919-5.617-17.807-12.486-27-18v92c19.016,9.045,39.762,21.853,58,33,5.445,3.328,12.034,9.712,18,12,2.572,0.987,35.687-3.937,40-5,30.66-7.561,65.354-8.684,96-16,10.712-2.557,31.2-.864,39-6h1V243Zm-175-2c4.51,4.284,2,22.875,2,31v90h-1v1h-1v-1c-3.513-5.59-1-22.141-1-30V270C105,260.97,103.566,248.264,106,241ZM94,292H91c-0.131-8.1-1.174-19.625,1-26h1v1C95.927,271.534,94.133,285.374,94,292Zm-50-6c7.17,1.112,20.135,8.881,24,14h1c0.99,1.01-.985.988-1,1-1.021.8-.274,0.355-2,1C60.823,295.923,46.3,294.372,44,286Zm1,9,24,14v2H66C61.032,306.6,43.805,301.556,45,295Zm46,3h3a20.138,20.138,0,0,1-1,7H91v-7Zm-47,6c9.563,0.838,17.4,9.046,25,13v2H65C59.9,312.925,47.1,311.692,44,304Zm47,6h3c0.1,4.056-.07,8.354-1,11H92v-1C90.663,318.008,90.9,313.493,91,310Zm-46,1,24,14v2H66C60.99,322.625,43.8,317.573,45,311Z"/>
</svg>
